<svg width="34" height="34" viewBox="0 0 34 34" fill="none" xmlns="http://www.w3.org/2000/svg">
<path d="M21.6193 23.1136V29.1562C21.6193 30.2687 20.7175 31.1705 19.6051 31.1705H4.83413C3.72171 31.1705 2.81992 30.2687 2.81992 29.1562V14.3853C2.81992 13.2729 3.72171 12.3711 4.83413 12.3711H10.8768V19.7566C10.8768 21.6106 12.3798 23.1136 14.2338 23.1136H21.6193Z" fill="#FAAD13"/>
<path d="M14.2338 2.97144H29.0048C30.1172 2.97144 31.019 3.87323 31.019 4.98565V19.7566C31.019 20.869 30.1172 21.7708 29.0048 21.7708H14.2338C13.1214 21.7708 12.2196 20.869 12.2196 19.7566V4.98565C12.2196 3.87323 13.1214 2.97144 14.2338 2.97144Z" fill="#890000"/>
</svg>
