<svg width="30" height="26" viewBox="0 0 30 26" fill="none" xmlns="http://www.w3.org/2000/svg">
<path d="M28.0066 11.4555H24.1574C22.0316 11.4555 20.3083 13.1789 20.3083 15.3047C20.3083 17.4306 22.0316 19.1539 24.1574 19.1539H28.0066V21.4634C28.0066 23.5892 26.2833 25.3126 24.1574 25.3126H2.60208C1.32658 25.3126 0.29258 24.2786 0.29258 23.0031V6.06671C0.29258 5.64154 0.637246 5.29688 1.06241 5.29688H24.1574C26.2833 5.29688 28.0066 7.02021 28.0066 9.14605V11.4555V11.006V11.4555Z" fill="#890000"/>
<path fill-rule="evenodd" clip-rule="evenodd" d="M24.8593 3.80235C24.5204 2.02289 22.9564 0.677734 21.0783 0.677734H4.14191C2.24019 0.677734 0.660578 2.05686 0.348656 3.86953C0.573476 3.79653 0.813419 3.75707 1.06258 3.75707H24.1576C24.3954 3.75707 24.6297 3.77248 24.8593 3.80235ZM24.1574 17.6142H29.5463V12.9952H24.1574C22.8819 12.9952 21.8479 14.0292 21.8479 15.3047C21.8479 16.5802 22.8819 17.6142 24.1574 17.6142Z" fill="#FAAD13"/>
</svg>
