<svg width="34" height="34" viewBox="0 0 34 34" fill="none" xmlns="http://www.w3.org/2000/svg">
<path fill-rule="evenodd" clip-rule="evenodd" d="M4.73745 2.85864H12.8588C13.9801 2.85864 14.8891 3.76765 14.8891 4.88897V13.0103C14.8891 14.1316 13.9801 15.0406 12.8588 15.0406H4.73745C3.61613 15.0406 2.70712 14.1316 2.70712 13.0103V4.88897C2.70712 3.76765 3.61613 2.85864 4.73745 2.85864ZM20.9801 19.1012H29.1015C30.2228 19.1012 31.1318 20.0103 31.1318 21.1316V29.2529C31.1318 30.3742 30.2228 31.2832 29.1015 31.2832H20.9801C19.8588 31.2832 18.9498 30.3742 18.9498 29.2529V21.1316C18.9498 20.0103 19.8588 19.1012 20.9801 19.1012Z" fill="#890000"/>
<path opacity="0.3" fill-rule="evenodd" clip-rule="evenodd" d="M20.9801 2.85864H29.1014C30.2228 2.85864 31.1318 3.76765 31.1318 4.88897V13.0103C31.1318 14.1316 30.2228 15.0406 29.1014 15.0406H20.9801C19.8588 15.0406 18.9498 14.1316 18.9498 13.0103V4.88897C18.9498 3.76765 19.8588 2.85864 20.9801 2.85864ZM4.73745 19.1013H12.8588C13.9801 19.1013 14.8891 20.0103 14.8891 21.1316V29.2529C14.8891 30.3742 13.9801 31.2832 12.8588 31.2832H4.73745C3.61613 31.2832 2.70712 30.3742 2.70712 29.2529V21.1316C2.70712 20.0103 3.61613 19.1013 4.73745 19.1013Z" fill="#890000"/>
</svg>
